<svg xmlns="http://www.w3.org/2000/svg" version="1.1" width="512"
     height="512" x="0" y="0" viewBox="0 0 512 512" style="enable-background:new 0 0 512 512" xml:space="preserve"
     class=""><g><linearGradient id="a" x1="67.549" x2="444.451" y1="507.648" y2="130.746" gradientUnits="userSpaceOnUse"><stop offset="0" stop-color="#fcc60e"></stop><stop
        offset="1" stop-color="#e92e29"></stop></linearGradient><path fill="url(#a)"
                                                                      d="M467.66 160.61h-31.772v-16.805a8 8 0 0 0-8-8c-29.223 0-51.453.874-70.847 2.803C343.701 95.481 303.451 64.06 256 64.06s-87.701 31.422-101.04 74.55c-19.395-1.929-41.625-2.803-70.847-2.803a8 8 0 0 0-8 8v16.805H44.34a8 8 0 0 0-8 8v304.516a8 8 0 0 0 8 8h172.889C217.66 493.812 228.114 504 240.902 504h30.529c12.789 0 23.243-10.188 23.674-22.874H467.66a8 8 0 0 0 8-8V168.61a8 8 0 0 0-8-8zm-47.773-8.781v278.646c-67.498.649-118.745 9.601-155.888 27.265v-53.602h2.307c13.169 0 23.882-10.713 23.882-23.882v-9.13a23.986 23.986 0 0 0 12.019-9.034c28.715-8.012 58.501-12.023 98.794-13.345 4.416-.146 7.878-3.843 7.733-8.259s-3.824-7.882-8.259-7.733c-37.693 1.238-66.605 4.784-94 11.655v-5.185c9.245-3.297 15.882-12.136 15.882-22.499v-8.8c23.095-4.826 46.446-7.255 78.63-8.257a8 8 0 0 0 7.747-8.245c-.138-4.416-3.806-7.893-8.245-7.747-30.877.961-54.713 3.334-77.363 7.777 1.406-14.078 3.866-25.145 6.875-34.307 24.023-4.399 45.903-5.825 70.971-6.558a8 8 0 0 0-.466-15.992c-22.28.65-42.153 1.84-63.25 5.099 2.441-4.83 4.965-9.15 7.405-13.319 4.157-7.104 8.203-14.023 11.314-22.245 15.589-1.637 30.785-2.239 44.981-2.623a8 8 0 0 0 7.781-8.213c-.119-4.417-3.817-7.866-8.213-7.781-12.694.343-26.192.862-40.148 2.115.868-5.3 1.362-11.174 1.362-17.834 0-5.25-.391-10.411-1.133-15.458 16.579-1.57 35.444-2.368 59.282-2.509zm-113.53 157.014v7.884c0 4.346-3.535 7.882-7.881 7.882h-84.952c-4.346 0-7.882-3.536-7.882-7.882v-7.884zm-75.234-123.617h-14.712c-8.112 0-14.712-6.6-14.712-14.711 0-8.112 6.6-14.712 14.712-14.712s14.712 6.6 14.712 14.712zm33.754 107.617h-17.755v-91.617h17.755zm-35.469 63.529c-4.347 0-7.883-3.535-7.883-7.881v-7.883h68.95v7.883c0 4.346-3.535 7.881-7.881 7.881zm8.404 16h36.376v7.885c0 4.346-3.536 7.882-7.882 7.882h-20.612c-4.346 0-7.882-3.536-7.882-7.882zM256 80.06c49.48 0 89.736 40.256 89.736 89.736 0 10.023-1.242 17.81-3.329 24.578-.022.072-.045.142-.066.215-2.714 8.706-6.828 15.737-11.492 23.708-9.647 16.488-20.508 35.046-23.932 74.546h-26.04v-91.617h14.712c16.935 0 30.712-13.777 30.712-30.711 0-16.935-13.777-30.712-30.712-30.712s-30.712 13.777-30.712 30.712v14.711h-17.755v-14.711c0-16.935-13.777-30.712-30.712-30.712s-30.712 13.777-30.712 30.712c0 16.934 13.777 30.711 30.712 30.711h14.712v91.617h-26.04c-3.424-39.5-14.284-58.058-23.933-74.546-4.663-7.97-8.776-15.002-11.491-23.707-.021-.074-.045-.146-.067-.219-2.086-6.768-3.328-14.554-3.328-24.576.001-49.48 40.256-89.735 89.737-89.735zm24.877 105.166v-14.711c0-8.112 6.6-14.712 14.712-14.712s14.712 6.6 14.712 14.712c0 8.111-6.6 14.711-14.712 14.711zM92.113 151.829c23.838.141 42.703.939 59.285 2.509a106.08 106.08 0 0 0-1.133 15.458c0 6.661.494 12.535 1.362 17.834-13.956-1.252-27.454-1.772-40.148-2.115-4.429-.126-8.094 3.364-8.213 7.781a8 8 0 0 0 7.781 8.213c14.196.384 29.392.986 44.981 2.623 3.11 8.221 7.156 15.141 11.313 22.246 2.439 4.169 4.963 8.489 7.405 13.318-21.097-3.259-40.97-4.448-63.25-5.099a8 8 0 0 0-8.229 7.763 7.998 7.998 0 0 0 7.763 8.229c25.069.732 46.948 2.158 70.971 6.558 3.009 9.162 5.469 20.229 6.875 34.307-22.649-4.443-46.486-6.815-77.363-7.777-4.378-.153-8.107 3.33-8.245 7.747a8 8 0 0 0 7.747 8.245c32.184 1.002 55.534 3.431 78.629 8.257v8.8c0 10.363 6.637 19.203 15.883 22.5v5.184c-27.395-6.871-56.308-10.417-94-11.654a7.984 7.984 0 0 0-8.259 7.733 8.001 8.001 0 0 0 7.733 8.259c40.292 1.323 70.078 5.333 98.794 13.345a23.977 23.977 0 0 0 12.018 9.033v9.13c0 13.169 10.714 23.882 23.882 23.882H248v53.602c-37.143-17.664-88.389-26.615-155.887-27.265zM52.34 465.126V176.61h23.772v261.827a8 8 0 0 0 8 8c58.946 0 105.113 6.144 139.971 18.688H52.34zm226.779 15.186c0 4.239-3.448 7.688-7.688 7.688h-30.529c-4.238 0-7.687-3.448-7.687-7.688v-7.187a7.955 7.955 0 0 0-1.999-5.277c7.485 3.022 14.416 6.362 20.783 10.038 1.237.715 2.619 1.072 4 1.072s2.763-.357 4-1.072c6.517-3.763 13.624-7.175 21.313-10.253a7.967 7.967 0 0 0-2.194 5.492v7.187zm180.541-15.186H287.916c34.858-12.545 81.026-18.688 139.972-18.688a8 8 0 0 0 8-8V176.61h23.772zm-223.273-53.399a8.003 8.003 0 0 1-7.537 5.32 7.972 7.972 0 0 1-2.682-.465c-31.413-11.177-68.013-17.137-115.181-18.757a8 8 0 0 1-7.721-8.27 7.988 7.988 0 0 1 8.27-7.721c48.859 1.678 86.988 7.929 119.995 19.673a8 8 0 0 1 4.856 10.22zm172.346-22.171a8 8 0 0 1-7.721 8.27c-47.168 1.62-83.768 7.58-115.182 18.757a7.997 7.997 0 0 1-2.682.465 8 8 0 0 1-2.682-15.539c33.008-11.744 71.137-17.995 119.996-19.673a7.999 7.999 0 0 1 8.271 7.72zM248 39.021V16a8 8 0 0 1 16 0v23.021a8 8 0 0 1-16 0zm-84.153 3.815a8 8 0 0 1 2.928-10.928 7.999 7.999 0 0 1 10.928 2.928l11.511 19.938a8 8 0 0 1-6.92 12.001 7.997 7.997 0 0 1-6.936-4.001zm-62.389 54.39a7.998 7.998 0 0 1 10.928-2.928l19.937 11.511a8 8 0 0 1-4.008 14.929 7.966 7.966 0 0 1-3.992-1.073l-19.937-11.511a7.999 7.999 0 0 1-2.928-10.928zm221.329-42.452 11.511-19.938a7.998 7.998 0 0 1 10.928-2.928 8 8 0 0 1 2.928 10.928l-11.511 19.938a7.997 7.997 0 0 1-10.928 2.928 7.998 7.998 0 0 1-2.928-10.928zm53.963 61.963a8 8 0 0 1 2.928-10.928l19.938-11.512a7.999 7.999 0 0 1 10.928 2.928 8 8 0 0 1-2.928 10.928l-19.938 11.512a7.992 7.992 0 0 1-10.928-2.928z"
                                                                      opacity="1" data-original="url(#a)"
                                                                      class=""></path></g></svg>